<?xml version="1.0" encoding="UTF-8"?>
<!DOCTYPE svg PUBLIC "-//W3C//DTD SVG 1.1//EN" "http://www.w3.org/Graphics/SVG/1.1/DTD/svg11.dtd">
<!-- Creator: CorelDRAW X7 -->
<svg xmlns="http://www.w3.org/2000/svg" xml:space="preserve" width="59.6683mm" height="60.4887mm" version="1.1" style="shape-rendering:geometricPrecision; text-rendering:geometricPrecision; image-rendering:optimizeQuality; fill-rule:evenodd; clip-rule:evenodd"
viewBox="0 0 1834 1859"
 xmlns:xlink="http://www.w3.org/1999/xlink">
 <defs>
  <style type="text/css">
   <![CDATA[
    .str0 {stroke:white;stroke-width:32.529}
    .fil0 {fill:none}
   ]]>
  </style>
 </defs>
 <g id="Layer_x0020_1">
  <metadata id="CorelCorpID_0Corel-Layer"/>
  <polygon class="fil0 str0" points="467,794 692,924 918,1054 918,1315 918,1575 692,1705 467,1835 242,1705 16,1575 16,1315 16,1054 242,924 "/>
  <polygon class="fil0 str0" points="1367,799 1592,930 1818,1060 1818,1320 1818,1580 1592,1710 1367,1840 1142,1710 916,1580 916,1320 916,1060 1142,930 "/>
  <polygon class="fil0 str0" points="919,19 1144,149 1369,279 1369,539 1369,799 1144,930 919,1060 693,930 468,799 468,539 468,279 693,149 "/>
  <polyline class="fil0 str0" points="918,1054 692,1184 467,1315 242,1184 16,1054 "/>
  <polyline class="fil0 str0" points="1369,279 1144,409 919,539 693,409 468,279 "/>
  <polyline class="fil0 str0" points="1820,1060 1595,1190 1369,1320 1144,1190 919,1060 "/>
 </g>
</svg>
